#!OML:ASF E:/inclinewalkrobotboard/Project1/Captureday1/Session1/subject1.ASF
:FULLY-SPECIFIED
:DEGREES
226
root 0 0 0 1.3604835630810823 -3.5150830686217445 1.7916811960923062
lowerback 11.91320039908913 0.8935180124887793 -0.07657056502573559
upperback -4.364900300320464 1.1233537044344248 -0.5871188811203805
thorax -11.44787059635695 0.5162035547844859 -0.8354130929788418
lowerneck -6.694688765008207 1.6169503915497885 4.403670527693392
upperneck 18.595334792655883 3.093280510704183 -7.883333435700626
head 6.92411908924959 1.1387906294400536 -3.0357554520378023
rclavicle 6.916779921821908E-16 -1.1958167877871875E-15
rhumerus 19.1116075189999 13.721999794511639 -48.50690460955115
rradius 71.5674519933393
rwrist 26.74584530717219
rhand -35.04616183653829 -56.81782865483008
rfingers 7.125020000000025
rthumb -8.176140959810997 -86.73203948261
lclavicle 6.155457468930495E-16 -1.7910036036032956E-15
lhumerus 20.669403496567433 -12.0837648954076 45.08424570903672
lradius 69.6480840035682
lwrist -22.635867177490944
lhand -44.63693139830815 -70.15764445293009
lfingers 7.1250200000000214
lthumb -17.459202442167975 -40.875819029365815
rfemur -24.639589007952516 -2.091144300272698 17.177009375211043
rtibia 53.799447514906646
rfoot -29.051850899824828 -17.039231298304635
rtoes -18.29855314160681
lfemur -26.35886967716199 2.457505643215831 -18.024862912982197
ltibia 54.18879938932401
lfoot -31.083975098714042 -3.514935721789662
ltoes -19.75042157376734
227
root 0 0 0 1.3604392700571557 -3.515126882604199 1.7916829431808377
lowerback 11.913193528515327 0.8935125565218817 -0.0765598009959102
upperback -4.36488130536471 1.1233491350126523 -0.5871114357117857
thorax -11.447844827157697 0.5162007762221279 -0.8354096483098654
lowerneck -6.694527572355994 1.6169289178553337 4.4037003895170805
upperneck 18.595239918070256 3.093257474421022 -7.883412128329175
head 6.924061154855318 1.138780368021 -3.035787744131375
rclavicle 6.920637325710468E-16 -1.1958254013488387E-15
rhumerus 19.111700779113562 13.722095083183957 -48.50687196913334
rradius 71.5675068599025
rwrist 26.745819131288926
rhand -35.04604038135547 -56.81767193757452
rfingers 7.125020000000025
rthumb -8.176022028327953 -86.7318862965592
lclavicle 6.159256338722467E-16 -1.7910507553694106E-15
lhumerus 20.66942841786755 -12.083839071180355 45.08416813085594
lradius 69.64812116042
lwrist -22.635881391469518
lhand -44.63688016669758 -70.15735148945609
lfingers 7.1250200000000214
lthumb -17.459153193104314 -40.87553078433536
rfemur -24.63958734467986 -2.09114444318543 17.177012462614584
rtibia 53.79945253354436
rfoot -29.051868797656986 -17.039231430468707
rtoes -18.298560694317512
lfemur -26.358832824089706 2.4575254866378633 -18.024859159890124
ltibia 54.188802000607915
lfoot -31.08396909376758 -3.5149121770537874
ltoes -19.750555451419903
228
root 0 0 0 1.360408383881939 -3.515157461782916 1.7916841549593845
lowerback 11.913188730205984 0.893508755200548 -0.07655228423321056
upperback -4.3648680674313285 1.1233459532445242 -0.5871062431975269
thorax -11.447826861703282 0.5161988406328875 -0.8354072527632876
lowerneck -6.69441513659189 1.6169139508445367 4.403721221917379
upperneck 18.5951737239037 3.0932414222042195 -7.883467017756123
head 6.924020737887761 1.138773218103621 -3.035810266991801
rclavicle 6.922584283414957E-16 -1.1958064403284831E-15
rhumerus 19.11176267437439 13.722157408256567 -48.506846093588884
rradius 71.56754285732164
rwrist 26.745803691254395
rhand -35.045957066382485 -56.81756521291106
rfingers 7.125020000000025
rthumb -8.175940598807927 -86.73178271072723
lclavicle 6.161146221183679E-16 -1.791047081961849E-15
lhumerus 20.66944674552486 -12.083888535775994 45.08411710823411
lradius 69.64814711975913
lwrist -22.635891140166976
lhand -44.636847361250126 -70.15715836203535
lfingers 7.1250200000000214
lthumb -17.45912157215774 -40.87533891898315
rfemur -24.639586038803508 -2.091144574144972 17.17701457716731
rtibia 53.799456127289154
rfoot -29.051881325701192 -17.03923161656224
rtoes -18.298565915022653
lfemur -26.35880754292927 2.4575391115589333 -18.024856473432006
ltibia 54.18880399959678
lfoot -31.08396559423729 -3.5148957053395304
ltoes -19.750647860054574
229
root 0 0 0 1.3603873885308673 -3.515178233670508 1.7916849775501738
lowerback 11.913185491764871 0.8935061699966442 -0.07654715910103635
upperback -4.364859032434405 1.1233437922019343 -0.5871027064141354
thorax -11.447814621423065 0.516197525258202 -0.8354056244341321
lowerneck -6.694338614876296 1.6169037342788766 4.403735397830195
upperneck 18.59512861900724 3.0932304524431595 -7.883504389605314
head 6.923993214021785 1.1387683316385186 -3.0358256050773766
rclavicle 6.923928075980535E-16 -1.1957978423319129E-15
rhumerus 19.111804145293082 13.722199212027125 -48.506829106485135
rradius 71.56756700049263
rwrist 26.745793249543006
rhand -35.04590149279865 -56.817494022026814
rfingers 7.125020000000025
rthumb -8.175886268149874 -86.73171357988409
lclavicle 6.162441308863945E-16 -1.791050361058791E-15
lhumerus 20.669458975891665 -12.083921807264776 45.08408283559382
lradius 69.64816454296901
lwrist -22.635897559174357
lhand -44.636825286542155 -70.1570287803965
lfingers 7.1250200000000214
lthumb -17.459100317203564 -40.87521037671023
rfemur -24.639585219363585 -2.0911447342020724 17.17701595621889
rtibia 53.79945863244122
rfoot -29.051889756090418 -17.039231723480746
rtoes -18.298569616532916
lfemur -26.3587905152047 2.4575481812381437 -18.024854717301466
ltibia 54.18880528673585
lfoot -31.08396328713135 -3.514884687843324
ltoes -19.7507096964994
